<?xml version="1.0" encoding="UTF-8"?> <svg xmlns="http://www.w3.org/2000/svg" width="780" height="409" viewBox="0 0 780 409" fill="none"> <rect x="458.687" y="0.0693359" width="126" height="421.871" transform="rotate(38.462 458.687 0.0693359)" fill="#45BCC2"></rect> <path d="M0 194.1V326.2H19.3432H38.6863V274.2V222.2H52.1743C66.6032 222.2 80.5094 220.3 88.9786 217.3C100.271 213.1 111.249 202.3 118.673 187.9C124.842 175.8 125.887 169 125.887 141.7C125.783 118.9 125.678 117.2 123.064 107.7C118.777 92.4002 113.445 83.8002 103.094 75.4002C96.9249 70.4002 89.9196 67.0002 81.0322 64.6002C75.8043 63.1002 68.5898 62.8002 37.4316 62.4002L0 62.0002V194.1ZM70.7855 98.7002C77.8954 100.7 83.9598 107 86.4692 114.9C87.933 119.7 88.2466 124.6 88.2466 142.2C88.2466 167.7 87.2011 172.6 80.5094 178.8C74.445 184.4 70.681 185.4 53.1153 186L37.6408 186.4V141.8V97.2002H51.5469C60.9571 97.2002 67.2306 97.7002 70.7855 98.7002Z" fill="white"></path> <path d="M199.496 63.1998C177.957 66.8998 159.555 80.1998 150.877 98.2998C145.544 109.3 145.335 112.4 145.335 194.4C145.335 272 145.649 278.4 149.413 288.6C155.582 305.4 172.52 319.9 192.386 325.6C201.274 328.2 215.493 328.7 224.799 326.8C236.091 324.5 250.102 317.6 257.526 310.6C268.504 300.1 273.837 290.5 276.032 276.5C276.764 272 277.078 243.2 276.764 190.7C276.45 102.2 276.764 106.2 268.713 93.0998C257.421 74.8998 237.032 63.3998 214.343 62.5998C208.906 62.4998 202.215 62.6998 199.496 63.1998ZM221.662 101.8C232.745 104.9 238.392 114 238.392 128.1L238.287 134.7L212.461 165.6L186.635 196.5L186.322 159.1C186.113 127.2 186.322 121 187.786 116.2C191.654 103.6 206.083 97.3998 221.662 101.8ZM236.719 274.1C232.85 287 218.107 293.2 202.737 288.5C191.236 284.9 186.113 276.4 186.113 260.8V252.7L209.743 224.7C222.708 209.3 234.418 195.3 235.568 193.7L237.869 190.7L238.182 229.7C238.392 262.9 238.182 269.4 236.719 274.1Z" fill="white"></path> <path d="M544.013 63.1998C521.743 67.0998 500.727 83.4998 494.349 102.2C490.48 113.2 490.271 119.2 490.689 199.7C491.003 271.7 491.212 279.2 492.885 284.7C498.426 302.9 516.828 319.8 537.426 325.6C546.314 328.2 560.638 328.7 569.839 326.8C597.024 321.3 613.649 302.1 617.831 277.1C619.295 268.5 619.4 122 617.936 113.4C615.635 99.8998 613.544 90.1998 603.402 80.6998C595.247 73.0998 587.928 68.7998 577.681 65.5998C568.271 62.6998 553.215 61.5998 544.013 63.1998ZM564.611 100.8C572.139 102.9 577.472 108 579.668 115.2C581.131 119.9 581.341 129.5 581.341 194.2C581.341 275.6 581.341 274.9 574.753 281.8C570.989 285.7 561.788 289.2 555.41 289.2C548.509 289.2 540.458 286.3 536.276 282.3C528.957 275.3 529.062 276.8 529.062 194.2C529.062 112.7 528.957 113.5 535.649 106.5C539.413 102.6 548.091 99.2998 554.783 99.1998C557.083 99.1998 561.579 99.8998 564.611 100.8Z" fill="white"></path> <path d="M297.989 195.2V326.2H317.332H336.676V195.2V64.2002H317.332H297.989V195.2Z" fill="white"></path> <path d="M359.678 81.7002V99.2002L394.078 99.4002L428.373 99.7002L421.577 117.7C388.014 207 372.748 247.3 364.802 268.3L355.496 292.9V309.5V326.2H413.526H471.555V308.7V291.2L434.019 291L396.483 290.7L407.775 261.2C426.491 212 439.247 178.6 455.558 136.7L471.032 96.7002L471.346 80.4002L471.66 64.2002H415.617H359.678V81.7002Z" fill="white"></path> <path d="M643.03 195.2V326.2H662.895H682.761L682.971 248.3L683.284 170.4L693.949 198C699.804 213.2 712.456 245.9 721.971 270.7C731.59 295.4 740.268 317.9 741.209 320.7L743.091 325.7L761.493 326L780 326.2V195.2V64.2002H760.134H740.268L740.164 142.9V221.7L734.517 206.7C731.381 198.4 718.102 163.1 704.928 128.2L680.984 64.7002L661.954 64.4002L643.03 64.2002V195.2Z" fill="white"></path> </svg> 